<svg width="1730" height="438" viewBox="0 0 1730 438" fill="none" xmlns="http://www.w3.org/2000/svg">
<rect x="697" width="433" height="434.959" rx="23.5113" fill="white"/>
<path fill-rule="evenodd" clip-rule="evenodd" d="M879.632 0H720C707.297 0 697 10.2975 697 23L697 37.5355C702.199 37.33 707.425 37.2262 712.674 37.2262C928.008 37.2262 1102.57 211.789 1102.57 427.122C1102.57 429.741 1102.54 432.353 1102.49 434.959H1107C1119.7 434.959 1130 424.662 1130 411.959V237.024C1080.71 129.002 990.722 43.4566 879.632 0ZM1004.5 0C1052.89 33.1205 1095.35 74.2476 1130 121.472V23C1130 10.2975 1119.7 0 1107 0H1004.5ZM1043.7 434.959C1043.76 432.354 1043.79 429.742 1043.79 427.122C1043.79 244.251 895.546 96.0045 712.674 96.0045C707.42 96.0045 702.194 96.1269 697 96.369V176.817C702.184 176.497 707.41 176.335 712.674 176.335C851.18 176.335 963.462 288.616 963.462 427.122C963.462 429.744 963.422 432.357 963.342 434.959H1043.7ZM904.526 434.959C904.631 432.36 904.683 429.747 904.683 427.122C904.683 321.079 818.718 235.113 712.674 235.113C707.397 235.113 702.17 235.326 697 235.744L697 411.959C697 424.662 707.297 434.959 720 434.959H904.526Z" fill="#660066"/>
<path d="M261.973 2.74341L42.7597 404.188L0 374.184L202.831 2.74341H261.973ZM265.027 2.74341L484.24 404.188L527 374.184L324.169 2.74341H265.027Z" fill="url(#paint0_linear_1_256)"/>
<path d="M481.186 406.55L263.5 235.971L45.8143 406.55L90.24 437.665L263.5 301.952L436.761 437.665L481.186 406.55Z" fill="url(#paint1_linear_1_256)"/>
<path d="M1523.78 31.0583L1337.39 217.694L1523 403.551L1709.39 216.916L1523.78 31.0583Z" fill="#019833" stroke="black" stroke-width="1.08797"/>
<path d="M1523 31.8359V15.5054L1320.31 218.471H1337.39L1523 31.8359V31.8359Z" fill="#66FE98" stroke="black" stroke-width="1.08797"/>
<path d="M1522.54 31.8359V15.5054L1725.23 218.471H1708.14L1522.54 31.8359V31.8359Z" fill="#45FE02" stroke="black" stroke-width="1.08797"/>
<path d="M1523 404.64V420.971L1320.31 218.005H1337.39L1523 404.64Z" fill="#017D17" stroke="black" stroke-width="1.08797"/>
<path d="M1357.91 36.1182H1488.61L1496.57 44.0914V68.561L1490.26 76.2593H1475.98V197.783L1598.99 76.2593H1578.67L1571.53 68.561V42.7167L1578.12 36.668H1710.46L1717.05 43.2666V67.4613L1417.77 374.844H1383.72L1373.87 369.146V75.1596H1357.36L1351.32 69.1109V43.2666L1357.91 36.1182V36.1182Z" stroke="black" stroke-width="21.7595"/>
<path d="M1522.54 404.64V420.971L1725.23 218.005H1708.14L1522.54 404.64V404.64Z" fill="#005D04" stroke="black" stroke-width="1.08797"/>
<path d="M1522.46 14L1319 217.729L1521.61 420.61L1725.06 216.88L1522.46 14Z" stroke="black" stroke-width="6.52785"/>
<path d="M1490 48.5555L1497.37 44.6673L1489.8 37.0852H1357.97L1351.28 43.7924V69.1631L1358.7 76.5994L1362.25 69.1631L1357.59 64.4972V46.6114L1361.08 43.5008H1486.89L1490 48.5555Z" fill="#FEFEFE" stroke="black" stroke-width="1.08797"/>
<path d="M1583.2 42.7175L1578.54 47.3785V64.4916L1582.62 68.5743H1604.16V85.109L1461.67 229.737V68.7784H1485.35L1490.21 63.9133V46.596L1485.72 43.1258H1361.1L1357.02 47.2084V64.8999L1361.16 69.0506H1382.84V365.451L1386.92 369.533H1411.55L1710.17 60.9874V47.3785L1705.51 42.7175H1583.2Z" stroke="black" stroke-width="1.08797"/>
<path d="M1382.62 68.5608V365.496L1386.47 369.895L1383.45 375.647L1374.94 367.145V76.2591L1382.62 68.5608Z" fill="#FEFEFE" stroke="black" stroke-width="1.08797"/>
<path d="M1361.33 68.5608L1359.13 75.7092H1375.05L1383.84 68.5608H1361.33Z" fill="#808080" stroke="black" stroke-width="1.08797"/>
<path d="M1580.08 76.5896L1583.58 69.3964L1578.53 64.7305V48.7888L1584.35 42.9564H1705.89L1710.55 49.1776L1717.15 44.5117L1710.36 37.7073H1579.69L1573.19 44.2201V69.7852L1579.94 76.1522L1580.08 76.5896ZM1474.34 198.909L1461.65 229.747L1604.93 85.8825V68.7743L1474.34 198.909V198.909Z" fill="#FEFEFE" stroke="black" stroke-width="1.08797"/>
<path d="M1489.71 47.6654L1496.02 43.5413V68.5608L1488.75 75.8467H1474.6V199.157L1461.7 229.675V68.5608H1485.31L1489.71 64.9866V47.6654V47.6654Z" fill="#808080" stroke="black" stroke-width="1.08797"/>
<path d="M1583.2 42.7175L1578.54 47.3785V64.4916L1582.62 68.5743H1604.16V85.109L1461.67 229.737V68.7784H1485.35L1490.21 63.9133V46.596L1485.72 43.1258H1361.1L1357.02 47.2084V64.8999L1361.16 69.0506H1382.84V365.451L1386.92 369.533H1411.55L1710.17 60.9874V47.3785L1705.51 42.7175H1583.2Z" fill="#CCCCCC" stroke="black" stroke-width="1.08797"/>
<path d="M1710.55 47.7779L1717.18 43.9436V67.9967L1416.37 375.795H1384.43L1387.49 369.724H1411.95L1710.16 61.3867L1710.55 47.7779Z" fill="#808080" stroke="black" stroke-width="1.08797"/>
<path d="M1604.34 68.9731L1597.61 75.9841H1580.04L1584.16 68.9731C1584.3 68.9731 1604.34 68.9731 1604.34 68.9731Z" fill="#808080" stroke="black" stroke-width="1.08797"/>
<path d="M1532.61 242.51C1532.38 242.558 1532.17 242.663 1532 242.817L1526.22 247.784C1526.05 247.941 1525.92 248.14 1525.85 248.362L1520.07 264.557C1519.99 264.794 1519.97 265.051 1520.02 265.298C1520.08 265.545 1520.2 265.771 1520.38 265.952L1524.79 270.374C1525.05 270.62 1525.39 270.755 1525.74 270.749H1543.58C1543.94 270.755 1544.28 270.62 1544.53 270.374L1549.19 265.679C1549.35 265.518 1549.47 265.319 1549.53 265.101L1554.49 248.056C1554.56 247.825 1554.56 247.579 1554.5 247.346C1554.44 247.112 1554.32 246.899 1554.15 246.729L1550.31 242.885C1550.05 242.639 1549.71 242.504 1549.36 242.51H1532.88C1532.79 242.501 1532.7 242.501 1532.61 242.51V242.51ZM1499.92 288.168C1499.68 288.221 1499.45 288.341 1499.27 288.515C1499.09 288.69 1498.96 288.911 1498.9 289.155L1496.69 297.932C1496.65 298.129 1496.64 298.335 1496.68 298.534C1496.73 298.732 1496.81 298.919 1496.94 299.08C1497.06 299.24 1497.22 299.37 1497.4 299.46C1497.58 299.55 1497.78 299.598 1497.99 299.599H1508.48L1482.46 374.006C1482.39 374.206 1482.37 374.42 1482.4 374.63C1482.43 374.839 1482.51 375.038 1482.64 375.211C1482.76 375.383 1482.92 375.524 1483.11 375.622C1483.3 375.72 1483.5 375.773 1483.72 375.775H1521.6C1521.88 375.779 1522.16 375.692 1522.4 375.527C1522.63 375.362 1522.8 375.127 1522.89 374.856L1525.37 366.861C1525.43 366.659 1525.45 366.446 1525.41 366.239C1525.37 366.031 1525.29 365.835 1525.16 365.666C1525.04 365.497 1524.87 365.36 1524.69 365.266C1524.5 365.173 1524.29 365.124 1524.08 365.126H1515.52L1541.27 289.937C1541.34 289.736 1541.36 289.522 1541.33 289.313C1541.3 289.104 1541.22 288.905 1541.09 288.732C1540.97 288.559 1540.81 288.418 1540.62 288.32C1540.43 288.222 1540.23 288.17 1540.01 288.168H1500.19C1500.1 288.159 1500.01 288.159 1499.92 288.168V288.168ZM1620.47 288.44C1620.18 288.5 1619.92 288.656 1619.72 288.882L1611.84 297.796H1599.3L1590.95 289.121C1590.82 288.993 1590.67 288.891 1590.51 288.821C1590.35 288.751 1590.17 288.714 1589.99 288.712H1560.06C1559.79 288.713 1559.52 288.798 1559.29 288.956C1559.07 289.115 1558.9 289.338 1558.8 289.597L1556.05 297.83C1555.98 298.031 1555.97 298.245 1556 298.454C1556.03 298.664 1556.11 298.863 1556.23 299.035C1556.35 299.208 1556.51 299.349 1556.7 299.447C1556.89 299.545 1557.1 299.597 1557.31 299.599H1565.33L1540.39 373.189C1540.32 373.39 1540.3 373.604 1540.33 373.813C1540.36 374.022 1540.44 374.222 1540.57 374.394C1540.69 374.567 1540.85 374.708 1541.04 374.806C1541.23 374.904 1541.43 374.956 1541.65 374.958H1573.52C1573.79 374.958 1574.06 374.872 1574.28 374.714C1574.51 374.556 1574.68 374.332 1574.77 374.074L1577.22 366.895C1577.29 366.694 1577.31 366.48 1577.27 366.271C1577.24 366.061 1577.16 365.862 1577.04 365.69C1576.92 365.517 1576.76 365.376 1576.57 365.278C1576.38 365.18 1576.17 365.128 1575.96 365.126H1570.39L1586.29 315.011H1615.07L1596.93 373.223C1596.86 373.424 1596.85 373.638 1596.89 373.845C1596.92 374.053 1597.01 374.249 1597.13 374.418C1597.26 374.587 1597.42 374.724 1597.61 374.818C1597.8 374.911 1598.01 374.96 1598.22 374.958H1628.97C1629.23 374.956 1629.48 374.878 1629.7 374.733C1629.92 374.588 1630.09 374.382 1630.19 374.142L1632.94 367.541C1633.02 367.34 1633.05 367.121 1633.03 366.905C1633 366.69 1632.93 366.482 1632.81 366.302C1632.69 366.121 1632.53 365.972 1632.34 365.868C1632.15 365.764 1631.93 365.708 1631.72 365.704H1626.14L1642.32 314.739H1669.7L1651.29 373.223C1651.23 373.424 1651.21 373.638 1651.25 373.845C1651.28 374.053 1651.37 374.249 1651.49 374.418C1651.62 374.587 1651.78 374.724 1651.97 374.818C1652.16 374.911 1652.37 374.96 1652.58 374.958H1686.35C1686.62 374.96 1686.89 374.88 1687.11 374.728C1687.34 374.576 1687.51 374.36 1687.61 374.108L1690.36 366.929C1690.43 366.726 1690.46 366.509 1690.43 366.295C1690.4 366.081 1690.32 365.877 1690.2 365.7C1690.08 365.523 1689.91 365.378 1689.72 365.278C1689.53 365.178 1689.32 365.126 1689.1 365.126H1682.41L1702.76 298.953C1702.83 298.747 1702.85 298.529 1702.81 298.315C1702.77 298.102 1702.69 297.901 1702.56 297.728L1696.24 289.223C1696.11 289.059 1695.94 288.927 1695.75 288.839C1695.57 288.75 1695.36 288.707 1695.15 288.712H1670.99C1670.81 288.709 1670.63 288.744 1670.46 288.814C1670.29 288.884 1670.14 288.989 1670.01 289.121L1662.4 297.49H1649.08L1641.2 288.848C1641.07 288.716 1640.92 288.612 1640.75 288.542C1640.58 288.472 1640.39 288.437 1640.21 288.44H1620.74C1620.65 288.431 1620.56 288.431 1620.47 288.44V288.44Z" fill="#CCCCCC" stroke="black" stroke-width="8.7038" stroke-miterlimit="10"/>
<path d="M1532.88 243.837L1527.1 248.804L1521.33 264.999L1525.74 269.422H1543.58L1548.24 264.727L1553.2 247.682L1549.36 243.837H1532.88ZM1500.19 289.495L1497.99 298.272H1510.35L1483.72 374.448H1521.6L1524.08 366.453H1513.65L1540.01 289.495H1500.19ZM1620.74 289.767L1612.49 299.123H1598.76L1589.99 290.039H1560.06L1557.31 298.272H1567.2L1541.65 373.631H1573.52L1575.96 366.453H1568.55L1585.31 313.684H1616.9L1598.22 373.631H1628.96L1631.72 367.031H1624.31L1641.33 313.412H1671.54L1652.58 373.631H1686.35L1689.1 366.453H1680.58L1701.47 298.545L1695.15 290.039H1670.99L1663.01 298.817H1648.47L1640.21 289.767H1620.74Z" fill="#CCCCCC" stroke="black" stroke-width="1.08797" stroke-miterlimit="10"/>
<defs>
<linearGradient id="paint0_linear_1_256" x1="74.3518" y1="553.77" x2="473.794" y2="144.522" gradientUnits="userSpaceOnUse">
<stop stop-color="#FF5416"/>
<stop offset="0.2535" stop-color="#FF5115"/>
<stop offset="0.461" stop-color="#FF4712"/>
<stop offset="0.6523" stop-color="#FF350E"/>
<stop offset="0.8327" stop-color="#FF1E08"/>
<stop offset="1" stop-color="#FF0000"/>
</linearGradient>
<linearGradient id="paint1_linear_1_256" x1="120.617" y1="653.348" x2="542.544" y2="390.448" gradientUnits="userSpaceOnUse">
<stop stop-color="#FF5416"/>
<stop offset="0.2535" stop-color="#FF5115"/>
<stop offset="0.461" stop-color="#FF4712"/>
<stop offset="0.6523" stop-color="#FF350E"/>
<stop offset="0.8327" stop-color="#FF1E08"/>
<stop offset="1" stop-color="#FF0000"/>
</linearGradient>
</defs>
</svg>
