<svg width="816" height="730" viewBox="0 0 816 730" fill="none" xmlns="http://www.w3.org/2000/svg">
<rect width="816" height="730" fill="white"/>
<circle cx="438.5" cy="258.5" r="87.25" fill="white" stroke="#03020D" stroke-width="1.5"/>
<path d="M438.732 212.006L395.109 291.848L386.6 285.881L426.963 212.006H438.732ZM439.34 212.006L482.963 291.848L491.472 285.881L451.109 212.006H439.34Z" fill="url(#paint0_linear_1_577)"/>
<path d="M482.355 292.318L439.036 258.392L395.717 292.318L404.558 298.506L439.036 271.515L473.514 298.506L482.355 292.318Z" fill="url(#paint1_linear_1_577)"/>
<rect x="324.75" y="544.75" width="227.5" height="157.5" rx="3.25" stroke="#03020D" stroke-width="1.5"/>
<path d="M326.47 573.087H550.53" stroke="#03020D" stroke-width="1.5" stroke-linecap="round" stroke-linejoin="round"/>
<path d="M376.948 588.195C376.949 589.216 376.653 590.214 376.099 591.063C375.545 591.913 374.757 592.575 373.836 592.966C372.914 593.357 371.899 593.459 370.92 593.261C369.941 593.062 369.042 592.571 368.336 591.849C367.63 591.127 367.149 590.208 366.954 589.206C366.759 588.205 366.859 587.167 367.241 586.224C367.623 585.281 368.269 584.475 369.099 583.907C369.929 583.34 370.904 583.037 371.903 583.037C373.24 583.037 374.523 583.581 375.469 584.548C376.415 585.515 376.947 586.827 376.948 588.195V588.195Z" fill="#FF5416" stroke="#03020D" stroke-width="1.5" stroke-miterlimit="10" stroke-linecap="round"/>
<path d="M380.569 603.834V603.346C380.569 601.844 380.02 600.403 379.041 599.34C378.063 598.278 376.736 597.681 375.352 597.681H368.453C367.07 597.681 365.742 598.278 364.764 599.34C363.786 600.403 363.236 601.844 363.236 603.346V603.834" fill="#FF5416" stroke="#03020D" stroke-width="1.5" stroke-miterlimit="10" stroke-linecap="round"/>
<path d="M348.912 588.202C348.913 589.236 348.614 590.246 348.053 591.106C347.492 591.966 346.694 592.637 345.76 593.033C344.826 593.429 343.799 593.533 342.808 593.332C341.816 593.13 340.906 592.633 340.191 591.902C339.476 591.171 338.989 590.24 338.791 589.226C338.594 588.212 338.695 587.161 339.082 586.205C339.468 585.25 340.123 584.434 340.963 583.859C341.804 583.285 342.792 582.978 343.802 582.978C345.157 582.978 346.456 583.529 347.415 584.508C348.373 585.487 348.911 586.816 348.912 588.202V588.202Z" stroke="#03020D" stroke-width="1.5" stroke-miterlimit="10" stroke-linecap="round"/>
<path d="M352.58 604.039V603.546C352.58 602.024 352.023 600.565 351.032 599.489C350.041 598.413 348.697 597.808 347.296 597.808H340.309C338.908 597.808 337.564 598.413 336.573 599.489C335.582 600.565 335.026 602.024 335.026 603.546V604.039" stroke="#03020D" stroke-width="1.5" stroke-miterlimit="10" stroke-linecap="round"/>
<path d="M342.94 559.591C342.94 560.686 342.05 561.576 340.951 561.576C339.851 561.576 338.962 560.686 338.962 559.591C338.962 558.496 339.851 557.607 340.951 557.607C342.05 557.607 342.94 558.496 342.94 559.591Z" fill="#03020D" stroke="#03020D" stroke-linecap="round" stroke-linejoin="round"/>
<path d="M351.859 559.591C351.859 560.686 350.97 561.576 349.87 561.576C348.771 561.576 347.881 560.686 347.881 559.591C347.881 558.496 348.771 557.607 349.87 557.607C350.97 557.607 351.859 558.496 351.859 559.591Z" fill="#03020D" stroke="#03020D" stroke-linecap="round" stroke-linejoin="round"/>
<path d="M360.779 559.591C360.779 560.686 359.889 561.576 358.79 561.576C357.69 561.576 356.8 560.686 356.8 559.591C356.8 558.496 357.69 557.607 358.79 557.607C359.889 557.607 360.779 558.496 360.779 559.591Z" fill="#03020D" stroke="#03020D" stroke-linecap="round" stroke-linejoin="round"/>
<rect x="355.114" y="652.898" width="28.7741" height="23.9064" rx="1" fill="#D9D9DA" stroke="black" stroke-width="1.5"/>
<rect x="418.172" y="652.898" width="28.7741" height="23.9064" rx="1" stroke="black" stroke-width="1.5"/>
<rect x="418.172" y="594.93" width="28.7741" height="23.9064" rx="1" stroke="black" stroke-width="1.5"/>
<rect x="481.23" y="594.93" width="28.7741" height="23.9064" rx="1" stroke="black" stroke-width="1.5"/>
<rect x="481.23" y="654.555" width="28.7741" height="23.9064" rx="1" fill="#D9D9DA" stroke="black" stroke-width="1.5"/>
<path d="M411.235 666.265C411.528 665.972 411.528 665.497 411.235 665.204L406.462 660.431C406.169 660.138 405.694 660.138 405.401 660.431C405.108 660.724 405.108 661.199 405.401 661.492L409.644 665.734L405.401 669.977C405.108 670.27 405.108 670.745 405.401 671.038C405.694 671.331 406.169 671.331 406.462 671.038L411.235 666.265ZM389.962 666.484H410.705V664.984H389.962V666.484Z" fill="black"/>
<path d="M474.293 666.265C474.586 665.972 474.586 665.497 474.293 665.204L469.52 660.431C469.227 660.138 468.752 660.138 468.459 660.431C468.166 660.724 468.166 661.199 468.459 661.492L472.702 665.734L468.459 669.977C468.166 670.27 468.166 670.745 468.459 671.038C468.752 671.331 469.227 671.331 469.52 671.038L474.293 666.265ZM453.02 666.484H473.763V664.984H453.02V666.484Z" fill="black"/>
<path d="M432.393 625.04C432.1 624.747 431.625 624.747 431.332 625.04L426.559 629.813C426.266 630.106 426.266 630.581 426.559 630.874C426.852 631.167 427.327 631.167 427.62 630.874L431.862 626.631L436.105 630.874C436.398 631.167 436.873 631.167 437.166 630.874C437.458 630.581 437.458 630.106 437.166 629.813L432.393 625.04ZM432.612 646.273L432.612 625.57L431.112 625.57L431.112 646.273L432.612 646.273Z" fill="black"/>
<path d="M474.293 606.64C474.586 606.347 474.586 605.872 474.293 605.579L469.52 600.806C469.227 600.513 468.752 600.513 468.459 600.806C468.166 601.099 468.166 601.574 468.459 601.867L472.702 606.109L468.459 610.352C468.166 610.645 468.166 611.12 468.459 611.413C468.752 611.706 469.227 611.706 469.52 611.413L474.293 606.64ZM453.02 606.859H473.763V605.359H453.02V606.859Z" fill="black"/>
<path d="M496.049 646.804C496.342 647.097 496.817 647.097 497.11 646.804L501.883 642.031C502.176 641.738 502.176 641.263 501.883 640.97C501.59 640.677 501.115 640.677 500.822 640.97L496.58 645.213L492.337 640.97C492.044 640.677 491.569 640.677 491.276 640.97C490.984 641.263 490.984 641.738 491.276 642.031L496.049 646.804ZM495.83 625.57L495.83 646.273L497.33 646.273L497.33 625.57L495.83 625.57Z" fill="black"/>
<path d="M514.138 644.738L519.397 623.189L540.947 617.997L502.154 606.109L514.138 644.738Z" fill="#FF5416" stroke="#03020D" stroke-width="1.5" stroke-linecap="round" stroke-linejoin="round"/>
<path d="M343.792 639.75L365.382 644.999L370.584 666.508L382.495 627.788L343.792 639.75Z" fill="white" stroke="#03020D" stroke-width="1.5" stroke-linecap="round" stroke-linejoin="round"/>
<rect x="39.75" y="204.75" width="154.5" height="107.5" rx="3.25" stroke="#03020D" stroke-width="1.5"/>
<path d="M52.2778 214.9C52.2778 215.698 51.6295 216.346 50.8278 216.346C50.0261 216.346 49.3778 215.698 49.3778 214.9C49.3778 214.102 50.0261 213.453 50.8278 213.453C51.6295 213.453 52.2778 214.102 52.2778 214.9Z" stroke="#03020D" stroke-linecap="round" stroke-linejoin="round"/>
<path d="M63.6925 214.9C63.6925 215.698 63.0442 216.346 62.2425 216.346C61.4408 216.346 60.7925 215.698 60.7925 214.9C60.7925 214.102 61.4408 213.453 62.2425 213.453C63.0442 213.453 63.6925 214.102 63.6925 214.9Z" stroke="#03020D" stroke-linecap="round" stroke-linejoin="round"/>
<path d="M75.107 214.9C75.107 215.698 74.4587 216.346 73.657 216.346C72.8554 216.346 72.207 215.698 72.207 214.9C72.207 214.102 72.8554 213.453 73.657 213.453C74.4587 213.453 75.107 214.102 75.107 214.9Z" stroke="#03020D" stroke-linecap="round" stroke-linejoin="round"/>
<path d="M156.378 276.966L165.953 286.503L160.2 292.245L150.645 282.688L143.04 290.182L133.739 260.012L163.847 269.297L156.378 276.966Z" stroke="#03020D" stroke-width="1.5" stroke-linecap="round" stroke-linejoin="round"/>
<line x1="48.75" y1="226.607" x2="148.2" y2="226.607" stroke="#03020D" stroke-width="1.5"/>
<line x1="40.95" y1="234.393" x2="195" y2="234.393" stroke="#03020D" stroke-width="1.5"/>
<rect x="618.75" y="54.75" width="154.5" height="107.5" rx="3.25" stroke="#03020D" stroke-width="1.5"/>
<path d="M631.278 64.8996C631.278 65.6975 630.629 66.346 629.828 66.346C629.026 66.346 628.378 65.6975 628.378 64.8996C628.378 64.1016 629.026 63.4531 629.828 63.4531C630.629 63.4531 631.278 64.1016 631.278 64.8996Z" stroke="#03020D" stroke-linecap="round" stroke-linejoin="round"/>
<path d="M642.692 64.8996C642.692 65.6975 642.044 66.346 641.242 66.346C640.441 66.346 639.792 65.6975 639.792 64.8996C639.792 64.1016 640.441 63.4531 641.242 63.4531C642.044 63.4531 642.692 64.1016 642.692 64.8996Z" stroke="#03020D" stroke-linecap="round" stroke-linejoin="round"/>
<path d="M654.107 64.8996C654.107 65.6975 653.459 66.346 652.657 66.346C651.855 66.346 651.207 65.6975 651.207 64.8996C651.207 64.1016 651.855 63.4531 652.657 63.4531C653.459 63.4531 654.107 64.1016 654.107 64.8996Z" stroke="#03020D" stroke-linecap="round" stroke-linejoin="round"/>
<path d="M735.378 126.966L744.953 136.503L739.2 142.245L729.645 132.688L722.04 140.182L712.739 110.012L742.847 119.297L735.378 126.966Z" stroke="#03020D" stroke-width="1.5" stroke-linecap="round" stroke-linejoin="round"/>
<line x1="627.75" y1="76.6072" x2="727.2" y2="76.6072" stroke="#03020D" stroke-width="1.5"/>
<line x1="619.95" y1="84.3928" x2="774" y2="84.3928" stroke="#03020D" stroke-width="1.5"/>
<rect x="626.75" y="352.75" width="154.5" height="107.5" rx="3.25" stroke="#03020D" stroke-width="1.5"/>
<path d="M639.278 362.9C639.278 363.698 638.629 364.346 637.828 364.346C637.026 364.346 636.378 363.698 636.378 362.9C636.378 362.102 637.026 361.453 637.828 361.453C638.629 361.453 639.278 362.102 639.278 362.9Z" stroke="#03020D" stroke-linecap="round" stroke-linejoin="round"/>
<path d="M650.692 362.9C650.692 363.698 650.044 364.346 649.242 364.346C648.441 364.346 647.792 363.698 647.792 362.9C647.792 362.102 648.441 361.453 649.242 361.453C650.044 361.453 650.692 362.102 650.692 362.9Z" stroke="#03020D" stroke-linecap="round" stroke-linejoin="round"/>
<path d="M662.107 362.9C662.107 363.698 661.459 364.346 660.657 364.346C659.855 364.346 659.207 363.698 659.207 362.9C659.207 362.102 659.855 361.453 660.657 361.453C661.459 361.453 662.107 362.102 662.107 362.9Z" stroke="#03020D" stroke-linecap="round" stroke-linejoin="round"/>
<path d="M743.378 424.966L752.953 434.503L747.2 440.245L737.645 430.688L730.04 438.182L720.739 408.012L750.847 417.297L743.378 424.966Z" stroke="#03020D" stroke-width="1.5" stroke-linecap="round" stroke-linejoin="round"/>
<line x1="635.75" y1="374.607" x2="735.2" y2="374.607" stroke="#03020D" stroke-width="1.5"/>
<line x1="627.95" y1="382.393" x2="782" y2="382.393" stroke="#03020D" stroke-width="1.5"/>
<path d="M219.226 258L225 263.774L230.774 258L225 252.226L219.226 258ZM331.207 258.707C331.598 258.317 331.598 257.683 331.207 257.293L324.843 250.929C324.453 250.538 323.819 250.538 323.429 250.929C323.038 251.319 323.038 251.953 323.429 252.343L329.086 258L323.429 263.657C323.038 264.047 323.038 264.681 323.429 265.071C323.819 265.462 324.453 265.462 324.843 265.071L331.207 258.707ZM225 259H330.5V257H225V259Z" fill="#FF5416"/>
<path d="M544.793 257.293C544.402 257.683 544.402 258.317 544.793 258.707L551.157 265.071C551.547 265.462 552.181 265.462 552.571 265.071C552.962 264.681 552.962 264.047 552.571 263.657L546.914 258L552.571 252.343C552.962 251.953 552.962 251.319 552.571 250.929C552.181 250.538 551.547 250.538 551.157 250.929L544.793 257.293ZM690.5 187.5V228H692.5V187.5H690.5ZM661.5 257H545.5V259H661.5V257ZM690.5 228C690.5 244.016 677.516 257 661.5 257V259C678.621 259 692.5 245.121 692.5 228H690.5Z" fill="#FF5416"/>
<path d="M690.5 328.5V288H692.5V328.5H690.5ZM661.5 259H545.5V257H661.5V259ZM690.5 288C690.5 271.984 677.516 259 661.5 259V257C678.621 257 692.5 270.879 692.5 288H690.5Z" fill="#FF5416"/>
<path d="M396.707 376.293C396.317 375.902 395.683 375.902 395.293 376.293L388.929 382.657C388.538 383.047 388.538 383.681 388.929 384.071C389.319 384.462 389.953 384.462 390.343 384.071L396 378.414L401.657 384.071C402.047 384.462 402.681 384.462 403.071 384.071C403.462 383.681 403.462 383.047 403.071 382.657L396.707 376.293ZM395.293 512.707C395.683 513.098 396.317 513.098 396.707 512.707L403.071 506.343C403.462 505.953 403.462 505.319 403.071 504.929C402.681 504.538 402.047 504.538 401.657 504.929L396 510.586L390.343 504.929C389.953 504.538 389.319 504.538 388.929 504.929C388.538 505.319 388.538 505.953 388.929 506.343L395.293 512.707ZM395 377L395 512L397 512L397 377L395 377Z" fill="#FF5416"/>
<path d="M438.707 376.293C438.317 375.902 437.683 375.902 437.293 376.293L430.929 382.657C430.538 383.047 430.538 383.681 430.929 384.071C431.319 384.462 431.953 384.462 432.343 384.071L438 378.414L443.657 384.071C444.047 384.462 444.681 384.462 445.071 384.071C445.462 383.681 445.462 383.047 445.071 382.657L438.707 376.293ZM437.293 512.707C437.683 513.098 438.317 513.098 438.707 512.707L445.071 506.343C445.462 505.953 445.462 505.319 445.071 504.929C444.681 504.538 444.047 504.538 443.657 504.929L438 510.586L432.343 504.929C431.953 504.538 431.319 504.538 430.929 504.929C430.538 505.319 430.538 505.953 430.929 506.343L437.293 512.707ZM437 377L437 512L439 512L439 377L437 377Z" fill="#FF5416"/>
<path d="M480.707 376.293C480.317 375.902 479.683 375.902 479.293 376.293L472.929 382.657C472.538 383.047 472.538 383.681 472.929 384.071C473.319 384.462 473.953 384.462 474.343 384.071L480 378.414L485.657 384.071C486.047 384.462 486.681 384.462 487.071 384.071C487.462 383.681 487.462 383.047 487.071 382.657L480.707 376.293ZM479.293 512.707C479.683 513.098 480.317 513.098 480.707 512.707L487.071 506.343C487.462 505.953 487.462 505.319 487.071 504.929C486.681 504.538 486.047 504.538 485.657 504.929L480 510.586L474.343 504.929C473.953 504.538 473.319 504.538 472.929 504.929C472.538 505.319 472.538 505.953 472.929 506.343L479.293 512.707ZM479 377L479 512L481 512L481 377L479 377Z" fill="#FF5416"/>
<path d="M77.3549 166.712C76.9389 166.712 76.5869 166.568 76.2989 166.28C76.0109 165.992 75.8669 165.64 75.8669 165.224C75.8669 164.808 76.0109 164.456 76.2989 164.168C76.5869 163.88 76.9389 163.736 77.3549 163.736C77.7549 163.736 78.0909 163.88 78.3629 164.168C78.6509 164.456 78.7949 164.808 78.7949 165.224C78.7949 165.64 78.6509 165.992 78.3629 166.28C78.0909 166.568 77.7549 166.712 77.3549 166.712ZM78.4109 168.848V182H76.2269V168.848H78.4109ZM88.5412 168.608C90.1412 168.608 91.4372 169.096 92.4292 170.072C93.4212 171.032 93.9172 172.424 93.9172 174.248V182H91.7572V174.56C91.7572 173.248 91.4292 172.248 90.7732 171.56C90.1172 170.856 89.2212 170.504 88.0852 170.504C86.9332 170.504 86.0132 170.864 85.3252 171.584C84.6532 172.304 84.3172 173.352 84.3172 174.728V182H82.1332V168.848H84.3172V170.72C84.7492 170.048 85.3332 169.528 86.0692 169.16C86.8212 168.792 87.6452 168.608 88.5412 168.608ZM98.6127 166.712C98.1967 166.712 97.8447 166.568 97.5567 166.28C97.2687 165.992 97.1247 165.64 97.1247 165.224C97.1247 164.808 97.2687 164.456 97.5567 164.168C97.8447 163.88 98.1967 163.736 98.6127 163.736C99.0127 163.736 99.3487 163.88 99.6207 164.168C99.9087 164.456 100.053 164.808 100.053 165.224C100.053 165.64 99.9087 165.992 99.6207 166.28C99.3487 166.568 99.0127 166.712 98.6127 166.712ZM99.6687 168.848V182H97.4847V168.848H99.6687ZM106.055 170.648V178.4C106.055 179.04 106.191 179.496 106.463 179.768C106.735 180.024 107.207 180.152 107.879 180.152H109.487V182H107.519C106.303 182 105.391 181.72 104.783 181.16C104.175 180.6 103.871 179.68 103.871 178.4V170.648H102.167V168.848H103.871V165.536H106.055V168.848H109.487V170.648H106.055ZM113.261 166.712C112.845 166.712 112.493 166.568 112.205 166.28C111.917 165.992 111.773 165.64 111.773 165.224C111.773 164.808 111.917 164.456 112.205 164.168C112.493 163.88 112.845 163.736 113.261 163.736C113.661 163.736 113.997 163.88 114.269 164.168C114.557 164.456 114.701 164.808 114.701 165.224C114.701 165.64 114.557 165.992 114.269 166.28C113.997 166.568 113.661 166.712 113.261 166.712ZM114.317 168.848V182H112.133V168.848H114.317ZM117.223 175.376C117.223 174.032 117.495 172.856 118.039 171.848C118.583 170.824 119.327 170.032 120.271 169.472C121.231 168.912 122.295 168.632 123.463 168.632C124.615 168.632 125.615 168.88 126.463 169.376C127.311 169.872 127.943 170.496 128.359 171.248V168.848H130.567V182H128.359V179.552C127.927 180.32 127.279 180.96 126.415 181.472C125.567 181.968 124.575 182.216 123.439 182.216C122.271 182.216 121.215 181.928 120.271 181.352C119.327 180.776 118.583 179.968 118.039 178.928C117.495 177.888 117.223 176.704 117.223 175.376ZM128.359 175.4C128.359 174.408 128.159 173.544 127.759 172.808C127.359 172.072 126.815 171.512 126.127 171.128C125.455 170.728 124.711 170.528 123.895 170.528C123.079 170.528 122.335 170.72 121.663 171.104C120.991 171.488 120.455 172.048 120.055 172.784C119.655 173.52 119.455 174.384 119.455 175.376C119.455 176.384 119.655 177.264 120.055 178.016C120.455 178.752 120.991 179.32 121.663 179.72C122.335 180.104 123.079 180.296 123.895 180.296C124.711 180.296 125.455 180.104 126.127 179.72C126.815 179.32 127.359 178.752 127.759 178.016C128.159 177.264 128.359 176.392 128.359 175.4ZM136.442 164.24V182H134.258V164.24H136.442ZM145.9 182.216C144.668 182.216 143.548 181.936 142.54 181.376C141.548 180.816 140.764 180.024 140.188 179C139.628 177.96 139.348 176.76 139.348 175.4C139.348 174.056 139.636 172.872 140.212 171.848C140.804 170.808 141.604 170.016 142.612 169.472C143.62 168.912 144.748 168.632 145.996 168.632C147.244 168.632 148.372 168.912 149.38 169.472C150.388 170.016 151.18 170.8 151.756 171.824C152.348 172.848 152.644 174.04 152.644 175.4C152.644 176.76 152.34 177.96 151.732 179C151.14 180.024 150.332 180.816 149.308 181.376C148.284 181.936 147.148 182.216 145.9 182.216ZM145.9 180.296C146.684 180.296 147.42 180.112 148.108 179.744C148.796 179.376 149.348 178.824 149.764 178.088C150.196 177.352 150.412 176.456 150.412 175.4C150.412 174.344 150.204 173.448 149.788 172.712C149.372 171.976 148.828 171.432 148.156 171.08C147.484 170.712 146.756 170.528 145.972 170.528C145.172 170.528 144.436 170.712 143.764 171.08C143.108 171.432 142.58 171.976 142.18 172.712C141.78 173.448 141.58 174.344 141.58 175.4C141.58 176.472 141.772 177.376 142.156 178.112C142.556 178.848 143.084 179.4 143.74 179.768C144.396 180.12 145.116 180.296 145.9 180.296ZM157.7 170.984C158.084 170.232 158.628 169.648 159.332 169.232C160.052 168.816 160.924 168.608 161.948 168.608V170.864H161.372C158.924 170.864 157.7 172.192 157.7 174.848V182H155.516V168.848H157.7V170.984Z" fill="black"/>
<path d="M669.905 23.632C671.041 23.632 672.033 23.88 672.881 24.376C673.745 24.872 674.385 25.496 674.801 26.248V23.848H677.009V37.288C677.009 38.488 676.753 39.552 676.241 40.48C675.729 41.424 674.993 42.16 674.033 42.688C673.089 43.216 671.985 43.48 670.721 43.48C668.993 43.48 667.553 43.072 666.401 42.256C665.249 41.44 664.569 40.328 664.361 38.92H666.521C666.761 39.72 667.257 40.36 668.009 40.84C668.761 41.336 669.665 41.584 670.721 41.584C671.921 41.584 672.897 41.208 673.649 40.456C674.417 39.704 674.801 38.648 674.801 37.288V34.528C674.369 35.296 673.729 35.936 672.881 36.448C672.033 36.96 671.041 37.216 669.905 37.216C668.737 37.216 667.673 36.928 666.713 36.352C665.769 35.776 665.025 34.968 664.481 33.928C663.937 32.888 663.665 31.704 663.665 30.376C663.665 29.032 663.937 27.856 664.481 26.848C665.025 25.824 665.769 25.032 666.713 24.472C667.673 23.912 668.737 23.632 669.905 23.632ZM674.801 30.4C674.801 29.408 674.601 28.544 674.201 27.808C673.801 27.072 673.257 26.512 672.569 26.128C671.897 25.728 671.153 25.528 670.337 25.528C669.521 25.528 668.777 25.72 668.105 26.104C667.433 26.488 666.897 27.048 666.497 27.784C666.097 28.52 665.897 29.384 665.897 30.376C665.897 31.384 666.097 32.264 666.497 33.016C666.897 33.752 667.433 34.32 668.105 34.72C668.777 35.104 669.521 35.296 670.337 35.296C671.153 35.296 671.897 35.104 672.569 34.72C673.257 34.32 673.801 33.752 674.201 33.016C674.601 32.264 674.801 31.392 674.801 30.4ZM692.364 23.848V37H690.18V35.056C689.764 35.728 689.18 36.256 688.428 36.64C687.692 37.008 686.876 37.192 685.98 37.192C684.956 37.192 684.036 36.984 683.22 36.568C682.404 36.136 681.756 35.496 681.276 34.648C680.812 33.8 680.58 32.768 680.58 31.552V23.848H682.74V31.264C682.74 32.56 683.068 33.56 683.724 34.264C684.38 34.952 685.276 35.296 686.412 35.296C687.58 35.296 688.5 34.936 689.172 34.216C689.844 33.496 690.18 32.448 690.18 31.072V23.848H692.364ZM708.051 29.92C708.051 30.336 708.027 30.776 707.979 31.24H697.467C697.547 32.536 697.987 33.552 698.787 34.288C699.603 35.008 700.587 35.368 701.739 35.368C702.683 35.368 703.467 35.152 704.091 34.72C704.731 34.272 705.179 33.68 705.435 32.944H707.787C707.435 34.208 706.731 35.24 705.675 36.04C704.619 36.824 703.307 37.216 701.739 37.216C700.491 37.216 699.371 36.936 698.379 36.376C697.403 35.816 696.635 35.024 696.075 34C695.515 32.96 695.235 31.76 695.235 30.4C695.235 29.04 695.507 27.848 696.051 26.824C696.595 25.8 697.355 25.016 698.331 24.472C699.323 23.912 700.459 23.632 701.739 23.632C702.987 23.632 704.091 23.904 705.051 24.448C706.011 24.992 706.747 25.744 707.259 26.704C707.787 27.648 708.051 28.72 708.051 29.92ZM705.795 29.464C705.795 28.632 705.611 27.92 705.243 27.328C704.875 26.72 704.371 26.264 703.731 25.96C703.107 25.64 702.411 25.48 701.643 25.48C700.539 25.48 699.595 25.832 698.811 26.536C698.043 27.24 697.603 28.216 697.491 29.464H705.795ZM715.59 37.216C714.582 37.216 713.678 37.048 712.878 36.712C712.078 36.36 711.446 35.88 710.982 35.272C710.518 34.648 710.262 33.936 710.214 33.136H712.47C712.534 33.792 712.838 34.328 713.382 34.744C713.942 35.16 714.67 35.368 715.566 35.368C716.398 35.368 717.054 35.184 717.534 34.816C718.014 34.448 718.254 33.984 718.254 33.424C718.254 32.848 717.998 32.424 717.486 32.152C716.974 31.864 716.182 31.584 715.11 31.312C714.134 31.056 713.334 30.8 712.71 30.544C712.102 30.272 711.574 29.88 711.126 29.368C710.694 28.84 710.478 28.152 710.478 27.304C710.478 26.632 710.678 26.016 711.078 25.456C711.478 24.896 712.046 24.456 712.782 24.136C713.518 23.8 714.358 23.632 715.302 23.632C716.758 23.632 717.934 24 718.83 24.736C719.726 25.472 720.206 26.48 720.27 27.76H718.086C718.038 27.072 717.758 26.52 717.246 26.104C716.75 25.688 716.078 25.48 715.23 25.48C714.446 25.48 713.822 25.648 713.358 25.984C712.894 26.32 712.662 26.76 712.662 27.304C712.662 27.736 712.798 28.096 713.07 28.384C713.358 28.656 713.71 28.88 714.126 29.056C714.558 29.216 715.15 29.4 715.902 29.608C716.846 29.864 717.614 30.12 718.206 30.376C718.798 30.616 719.302 30.984 719.718 31.48C720.15 31.976 720.374 32.624 720.39 33.424C720.39 34.144 720.19 34.792 719.79 35.368C719.39 35.944 718.822 36.4 718.086 36.736C717.366 37.056 716.534 37.216 715.59 37.216ZM726.137 25.648V33.4C726.137 34.04 726.273 34.496 726.545 34.768C726.817 35.024 727.289 35.152 727.961 35.152H729.569V37H727.601C726.385 37 725.473 36.72 724.865 36.16C724.257 35.6 723.953 34.68 723.953 33.4V25.648H722.249V23.848H723.953V20.536H726.137V23.848H729.569V25.648H726.137Z" fill="black"/>
<path d="M674.905 480.632C676.041 480.632 677.033 480.88 677.881 481.376C678.745 481.872 679.385 482.496 679.801 483.248V480.848H682.009V494.288C682.009 495.488 681.753 496.552 681.241 497.48C680.729 498.424 679.993 499.16 679.033 499.688C678.089 500.216 676.985 500.48 675.721 500.48C673.993 500.48 672.553 500.072 671.401 499.256C670.249 498.44 669.569 497.328 669.361 495.92H671.521C671.761 496.72 672.257 497.36 673.009 497.84C673.761 498.336 674.665 498.584 675.721 498.584C676.921 498.584 677.897 498.208 678.649 497.456C679.417 496.704 679.801 495.648 679.801 494.288V491.528C679.369 492.296 678.729 492.936 677.881 493.448C677.033 493.96 676.041 494.216 674.905 494.216C673.737 494.216 672.673 493.928 671.713 493.352C670.769 492.776 670.025 491.968 669.481 490.928C668.937 489.888 668.665 488.704 668.665 487.376C668.665 486.032 668.937 484.856 669.481 483.848C670.025 482.824 670.769 482.032 671.713 481.472C672.673 480.912 673.737 480.632 674.905 480.632ZM679.801 487.4C679.801 486.408 679.601 485.544 679.201 484.808C678.801 484.072 678.257 483.512 677.569 483.128C676.897 482.728 676.153 482.528 675.337 482.528C674.521 482.528 673.777 482.72 673.105 483.104C672.433 483.488 671.897 484.048 671.497 484.784C671.097 485.52 670.897 486.384 670.897 487.376C670.897 488.384 671.097 489.264 671.497 490.016C671.897 490.752 672.433 491.32 673.105 491.72C673.777 492.104 674.521 492.296 675.337 492.296C676.153 492.296 676.897 492.104 677.569 491.72C678.257 491.32 678.801 490.752 679.201 490.016C679.601 489.264 679.801 488.392 679.801 487.4ZM697.364 480.848V494H695.18V492.056C694.764 492.728 694.18 493.256 693.428 493.64C692.692 494.008 691.876 494.192 690.98 494.192C689.956 494.192 689.036 493.984 688.22 493.568C687.404 493.136 686.756 492.496 686.276 491.648C685.812 490.8 685.58 489.768 685.58 488.552V480.848H687.74V488.264C687.74 489.56 688.068 490.56 688.724 491.264C689.38 491.952 690.276 492.296 691.412 492.296C692.58 492.296 693.5 491.936 694.172 491.216C694.844 490.496 695.18 489.448 695.18 488.072V480.848H697.364ZM713.051 486.92C713.051 487.336 713.027 487.776 712.979 488.24H702.467C702.547 489.536 702.987 490.552 703.787 491.288C704.603 492.008 705.587 492.368 706.739 492.368C707.683 492.368 708.467 492.152 709.091 491.72C709.731 491.272 710.179 490.68 710.435 489.944H712.787C712.435 491.208 711.731 492.24 710.675 493.04C709.619 493.824 708.307 494.216 706.739 494.216C705.491 494.216 704.371 493.936 703.379 493.376C702.403 492.816 701.635 492.024 701.075 491C700.515 489.96 700.235 488.76 700.235 487.4C700.235 486.04 700.507 484.848 701.051 483.824C701.595 482.8 702.355 482.016 703.331 481.472C704.323 480.912 705.459 480.632 706.739 480.632C707.987 480.632 709.091 480.904 710.051 481.448C711.011 481.992 711.747 482.744 712.259 483.704C712.787 484.648 713.051 485.72 713.051 486.92ZM710.795 486.464C710.795 485.632 710.611 484.92 710.243 484.328C709.875 483.72 709.371 483.264 708.731 482.96C708.107 482.64 707.411 482.48 706.643 482.48C705.539 482.48 704.595 482.832 703.811 483.536C703.043 484.24 702.603 485.216 702.491 486.464H710.795ZM720.59 494.216C719.582 494.216 718.678 494.048 717.878 493.712C717.078 493.36 716.446 492.88 715.982 492.272C715.518 491.648 715.262 490.936 715.214 490.136H717.47C717.534 490.792 717.838 491.328 718.382 491.744C718.942 492.16 719.67 492.368 720.566 492.368C721.398 492.368 722.054 492.184 722.534 491.816C723.014 491.448 723.254 490.984 723.254 490.424C723.254 489.848 722.998 489.424 722.486 489.152C721.974 488.864 721.182 488.584 720.11 488.312C719.134 488.056 718.334 487.8 717.71 487.544C717.102 487.272 716.574 486.88 716.126 486.368C715.694 485.84 715.478 485.152 715.478 484.304C715.478 483.632 715.678 483.016 716.078 482.456C716.478 481.896 717.046 481.456 717.782 481.136C718.518 480.8 719.358 480.632 720.302 480.632C721.758 480.632 722.934 481 723.83 481.736C724.726 482.472 725.206 483.48 725.27 484.76H723.086C723.038 484.072 722.758 483.52 722.246 483.104C721.75 482.688 721.078 482.48 720.23 482.48C719.446 482.48 718.822 482.648 718.358 482.984C717.894 483.32 717.662 483.76 717.662 484.304C717.662 484.736 717.798 485.096 718.07 485.384C718.358 485.656 718.71 485.88 719.126 486.056C719.558 486.216 720.15 486.4 720.902 486.608C721.846 486.864 722.614 487.12 723.206 487.376C723.798 487.616 724.302 487.984 724.718 488.48C725.15 488.976 725.374 489.624 725.39 490.424C725.39 491.144 725.19 491.792 724.79 492.368C724.39 492.944 723.822 493.4 723.086 493.736C722.366 494.056 721.534 494.216 720.59 494.216ZM731.137 482.648V490.4C731.137 491.04 731.273 491.496 731.545 491.768C731.817 492.024 732.289 492.152 732.961 492.152H734.569V494H732.601C731.385 494 730.473 493.72 729.865 493.16C729.257 492.6 728.953 491.68 728.953 490.4V482.648H727.249V480.848H728.953V477.536H731.137V480.848H734.569V482.648H731.137Z" fill="black"/>
<defs>
<linearGradient id="paint0_linear_1_577" x1="401.396" y1="313.162" x2="474.344" y2="232.145" gradientUnits="userSpaceOnUse">
<stop stop-color="#FF5416"/>
<stop offset="0.2535" stop-color="#FF5115"/>
<stop offset="0.461" stop-color="#FF4712"/>
<stop offset="0.6523" stop-color="#FF350E"/>
<stop offset="0.8327" stop-color="#FF1E08"/>
<stop offset="1" stop-color="#FF0000"/>
</linearGradient>
<linearGradient id="paint1_linear_1_577" x1="415.546" y1="318.399" x2="458.661" y2="270.516" gradientUnits="userSpaceOnUse">
<stop stop-color="#FF5416"/>
<stop offset="0.2535" stop-color="#FF5115"/>
<stop offset="0.461" stop-color="#FF4712"/>
<stop offset="0.6523" stop-color="#FF350E"/>
<stop offset="0.8327" stop-color="#FF1E08"/>
<stop offset="1" stop-color="#FF0000"/>
</linearGradient>
</defs>
</svg>
